<svg xmlns="http://www.w3.org/2000/svg" viewBox="0 0 32 32" width="32" height="32">
  <!-- Pixel gamepad favicon -->
  <!-- Body -->
  <rect x="6" y="8" width="20" height="2" fill="#5C6BC0"/>
  <rect x="4" y="10" width="24" height="2" fill="#5C6BC0"/>
  <rect x="4" y="12" width="24" height="2" fill="#3F51B5"/>
  <rect x="4" y="14" width="24" height="2" fill="#3F51B5"/>
  <rect x="4" y="16" width="24" height="2" fill="#3949AB"/>
  <rect x="4" y="18" width="24" height="2" fill="#3949AB"/>
  <rect x="6" y="20" width="8" height="2" fill="#303F9F"/>
  <rect x="18" y="20" width="8" height="2" fill="#303F9F"/>
  <rect x="8" y="22" width="4" height="2" fill="#283593"/>
  <rect x="20" y="22" width="4" height="2" fill="#283593"/>
  <!-- D-pad -->
  <rect x="9" y="12" width="2" height="6" fill="#1A237E"/>
  <rect x="7" y="14" width="6" height="2" fill="#1A237E"/>
  <rect x="9" y="14" width="2" height="2" fill="#3949AB"/>
  <!-- Buttons -->
  <rect x="21" y="12" width="2" height="2" fill="#FF5252" rx="0"/>
  <rect x="23" y="14" width="2" height="2" fill="#4CAF50" rx="0"/>
  <rect x="19" y="14" width="2" height="2" fill="#FFEB3B" rx="0"/>
  <rect x="21" y="16" width="2" height="2" fill="#42A5F5" rx="0"/>
  <!-- Shine -->
  <rect x="6" y="8" width="4" height="2" fill="#7986CB"/>
  <rect x="4" y="10" width="2" height="2" fill="#7986CB"/>
</svg>